<svg xmlns="http://www.w3.org/2000/svg" viewBox="0 0 108 108" width="108" height="108">
    <rect width="108" height="108" fill="#CDE7EC" rx="24"/>
    <g transform="translate(18, 18) scale(3)">
        <path fill="#006874" d="M12,1L3,5v6c0,5.55 3.84,10.74 9,12c5.16,-1.26 9,-6.45 9,-12V5l-9,-4z"/>
        <path fill="#FFFFFF" d="M12,7c-2.76,0 -5,2.24 -5,5s2.24,5 5,5 5,-2.24 5,-5 -2.24,-5 -5,-5zM12,15.5c-1.93,0 -3.5,-1.57 -3.5,-3.5 0,-0.81 0.28,-1.55 0.74,-2.14l4.9,4.9c-0.59,0.46 -1.33,0.74 -2.14,0.74zM14.76,14.14l-4.9,-4.9c0.59,-0.46 1.33,-0.74 2.14,-0.74 1.93,0 3.5,1.57 3.5,3.5 0,0.81 -0.28,1.55 -0.74,2.14z"/>
    </g>
</svg>
